<svg data-name="Calque 2" xmlns="http://www.w3.org/2000/svg" viewBox="0 0 284 284"><path d="M142 15a127 127 0 1 0 127 127A127 127 0 0 0 142 15Zm69.13 227.43-44-44a56.56 56.56 0 0 0 53.57-65c-3.86-26.63-29.77-48.29-56.68-48.29h-48.58c1.51-7.34 7.16-15.23 16.19-20.37a78.41 78.41 0 0 0-39.48 18.14 77.31 77.31 0 0 0-26.75 59.24s4.88-15.23 11.75-22.69h87a23.22 23.22 0 0 1 3.33.25 22.67 22.67 0 0 1 19 25.8c-1.67 11.13-11.59 19.15-22.84 19.15H133l-14 34.12 59.84 59.48a122 122 0 0 1-36.84 5.66A121.92 121.92 0 1 1 263.92 142a121.77 121.77 0 0 1-52.79 100.43Z" style="fill:#59b4d9;fill-rule:evenodd"/></svg>